<mxfile host="app.diagrams.net" modified="2021-09-07T16:13:57.501Z" agent="5.0 (Macintosh; Intel Mac OS X 10_15_7) AppleWebKit/605.1.15 (KHTML, like Gecko) Version/14.1.1 Safari/605.1.15" etag="9P27telilaj3akvWAE_M" version="15.0.6" type="gitlab">
  <diagram id="RGLgWkfbOrkYHS0e3fRh" name="Page-1">
    <mxGraphModel dx="705" dy="685" grid="1" gridSize="10" guides="1" tooltips="1" connect="1" arrows="1" fold="1" page="1" pageScale="1" pageWidth="850" pageHeight="1100" math="0" shadow="0">
      <root>
        <mxCell id="0" />
        <mxCell id="1" parent="0" />
        <mxCell id="t722lZnYrscvM99BjGWm-2" value="&lt;h1&gt;MVP&lt;/h1&gt;&lt;div&gt;Basic Functions of App&lt;/div&gt;&lt;div&gt;&lt;ol&gt;&lt;li&gt;Account Creation&lt;/li&gt;&lt;ul&gt;&lt;li&gt;Create Organization with a Name&lt;br&gt;&lt;/li&gt;&lt;ul&gt;&lt;li&gt;Option only is displayed if the bishop role is selected&lt;/li&gt;&lt;li&gt;Cannot have the same name as another organization&lt;/li&gt;&lt;/ul&gt;&lt;li&gt;First Name&lt;br&gt;&lt;/li&gt;&lt;li&gt;Last Name&lt;br&gt;&lt;/li&gt;&lt;li&gt;Email&lt;br&gt;&lt;/li&gt;&lt;/ul&gt;&lt;ol&gt;&lt;ul&gt;&lt;li&gt;&lt;span&gt;Username is the users email&lt;/span&gt;&lt;/li&gt;&lt;li&gt;Not allowed to have the same username as someone else&lt;br&gt;&lt;/li&gt;&lt;/ul&gt;&lt;/ol&gt;&lt;ul&gt;&lt;li&gt;Phone Number&lt;br&gt;&lt;/li&gt;&lt;ul&gt;&lt;li&gt;Format to look like a phone number +1 (123) 456-4568&lt;/li&gt;&lt;/ul&gt;&lt;li&gt;Password&lt;br&gt;&lt;/li&gt;&lt;/ul&gt;&lt;ol&gt;&lt;ul&gt;&lt;li&gt;&lt;span&gt;Does not show the password but instead black circles&lt;/span&gt;&lt;/li&gt;&lt;li&gt;&lt;span&gt;Must have a number or a symbol&lt;/span&gt;&lt;/li&gt;&lt;li&gt;Must be at least 8 characters long&lt;/li&gt;&lt;/ul&gt;&lt;/ol&gt;&lt;ul&gt;&lt;li&gt;Confirm Password&lt;br&gt;&lt;/li&gt;&lt;/ul&gt;&lt;ol&gt;&lt;ul&gt;&lt;li&gt;&lt;span style=&quot;white-space: pre&quot;&gt;Shows black circles like password&lt;/span&gt;&lt;/li&gt;&lt;li&gt;&lt;span style=&quot;white-space: pre&quot;&gt;Must match the password&lt;/span&gt;&lt;/li&gt;&lt;/ul&gt;&lt;/ol&gt;&lt;ul&gt;&lt;li&gt;Role&lt;/li&gt;&lt;ul&gt;&lt;li&gt;&lt;span style=&quot;white-space: pre&quot;&gt;Pulled from database once never again.&lt;/span&gt;&lt;/li&gt;&lt;/ul&gt;&lt;li&gt;General Validation on all fields&lt;br&gt;&lt;/li&gt;&lt;/ul&gt;&lt;ol&gt;&lt;ul&gt;&lt;li&gt;&lt;span&gt;No empty Fields&lt;/span&gt;&lt;/li&gt;&lt;/ul&gt;&lt;/ol&gt;&lt;ul&gt;&lt;li&gt;Saving Account&lt;/li&gt;&lt;/ul&gt;&lt;ol&gt;&lt;ul&gt;&lt;li&gt;After Validation is complete save the data to the database&lt;/li&gt;&lt;li&gt;Return to the login page is successful&lt;/li&gt;&lt;li&gt;Remain on the Sign up Page if an error occurred&lt;/li&gt;&lt;li&gt;Inform the user of the error with a toast&lt;/li&gt;&lt;/ul&gt;&lt;/ol&gt;&lt;li&gt;Login with created account&lt;/li&gt;&lt;ol&gt;&lt;li&gt;Validate Password&lt;/li&gt;&lt;li&gt;Validate username&lt;/li&gt;&lt;/ol&gt;&lt;li&gt;Join an organization&lt;/li&gt;&lt;ol&gt;&lt;li&gt;If an organization is not yet joined show a list of organizations that could be joined&lt;/li&gt;&lt;/ol&gt;&lt;li&gt;See the information of the organization&lt;/li&gt;&lt;ol&gt;&lt;li&gt;Events&lt;/li&gt;&lt;li&gt;Assignments&lt;/li&gt;&lt;li&gt;People in the Organization&lt;/li&gt;&lt;/ol&gt;&lt;li&gt;Create an Event&lt;/li&gt;&lt;li&gt;Create an Assignment&lt;/li&gt;&lt;/ol&gt;&lt;div&gt;Analytics&lt;/div&gt;&lt;/div&gt;&lt;div&gt;&lt;ol&gt;&lt;li&gt;This need thought out....&lt;/li&gt;&lt;/ol&gt;&lt;/div&gt;&lt;div&gt;&lt;br&gt;&lt;/div&gt;&lt;div&gt;Tests&lt;/div&gt;&lt;div&gt;&lt;ol&gt;&lt;li&gt;Unit tests&lt;/li&gt;&lt;/ol&gt;&lt;/div&gt;" style="text;html=1;spacing=5;spacingTop=-20;whiteSpace=wrap;overflow=hidden;rounded=0;fillColor=#ffffff;" parent="1" vertex="1">
          <mxGeometry x="10" y="10" width="520" height="1110" as="geometry" />
        </mxCell>
      </root>
    </mxGraphModel>
  </diagram>
</mxfile>
